<svg width="14" height="18" viewBox="0 0 14 18" fill="none" xmlns="http://www.w3.org/2000/svg">
<path d="M2.132 17.5V11.572H0.74V9.796H2.132V8.068H0.74V6.292H2.132V0.363999H5.9L7.772 6.292H9.956V0.363999H12.62V6.292H13.988V8.068H12.62V9.796H13.988V11.572H12.62V17.5H8.828L6.908 11.572H4.796V17.5H2.132ZM4.796 9.796H6.38L5.852 8.068H4.748L4.796 9.796ZM10.028 13.756H10.148L10.052 11.572H9.404L10.028 13.756ZM4.7 6.292H5.372L4.676 3.988H4.58L4.7 6.292ZM8.9 9.796H10.004L9.956 8.068H8.348L8.9 9.796Z" fill="#152A36"/>
</svg>
